<mxfile host="Electron" agent="Mozilla/5.0 (Windows NT 10.0; Win64; x64) AppleWebKit/537.36 (KHTML, like Gecko) draw.io/26.1.1 Chrome/132.0.6834.210 Electron/34.3.3 Safari/537.36" version="26.1.1">
  <diagram name="第 1 页" id="1vT48uX6BxPMxwmc46RL">
    <mxGraphModel dx="1562" dy="917" grid="1" gridSize="10" guides="1" tooltips="1" connect="1" arrows="1" fold="1" page="1" pageScale="1" pageWidth="827" pageHeight="1169" math="0" shadow="0">
      <root>
        <mxCell id="0" />
        <mxCell id="1" parent="0" />
        <mxCell id="_q9-HKSOUUPVDEMYmFbj-4" style="edgeStyle=orthogonalEdgeStyle;rounded=0;orthogonalLoop=1;jettySize=auto;html=1;exitX=1;exitY=0.25;exitDx=0;exitDy=0;entryX=0.5;entryY=0;entryDx=0;entryDy=0;" edge="1" parent="1" source="_q9-HKSOUUPVDEMYmFbj-1" target="_q9-HKSOUUPVDEMYmFbj-3">
          <mxGeometry relative="1" as="geometry" />
        </mxCell>
        <mxCell id="_q9-HKSOUUPVDEMYmFbj-6" value="定位" style="edgeLabel;html=1;align=center;verticalAlign=middle;resizable=0;points=[];" vertex="1" connectable="0" parent="_q9-HKSOUUPVDEMYmFbj-4">
          <mxGeometry x="-0.3795" y="3" relative="1" as="geometry">
            <mxPoint y="1" as="offset" />
          </mxGeometry>
        </mxCell>
        <mxCell id="_q9-HKSOUUPVDEMYmFbj-1" value="原生函数" style="html=1;whiteSpace=wrap;" vertex="1" parent="1">
          <mxGeometry x="240" y="330" width="110" height="50" as="geometry" />
        </mxCell>
        <mxCell id="_q9-HKSOUUPVDEMYmFbj-5" style="edgeStyle=orthogonalEdgeStyle;rounded=0;orthogonalLoop=1;jettySize=auto;html=1;exitX=1;exitY=0.5;exitDx=0;exitDy=0;entryX=0.5;entryY=1;entryDx=0;entryDy=0;" edge="1" parent="1" source="_q9-HKSOUUPVDEMYmFbj-2" target="_q9-HKSOUUPVDEMYmFbj-3">
          <mxGeometry relative="1" as="geometry" />
        </mxCell>
        <mxCell id="_q9-HKSOUUPVDEMYmFbj-7" value="入参" style="edgeLabel;html=1;align=center;verticalAlign=middle;resizable=0;points=[];" vertex="1" connectable="0" parent="_q9-HKSOUUPVDEMYmFbj-5">
          <mxGeometry x="-0.184" relative="1" as="geometry">
            <mxPoint as="offset" />
          </mxGeometry>
        </mxCell>
        <mxCell id="_q9-HKSOUUPVDEMYmFbj-2" value="参数列表" style="html=1;whiteSpace=wrap;" vertex="1" parent="1">
          <mxGeometry x="240" y="420" width="110" height="50" as="geometry" />
        </mxCell>
        <mxCell id="_q9-HKSOUUPVDEMYmFbj-3" value="C++&amp;nbsp;函数" style="html=1;whiteSpace=wrap;" vertex="1" parent="1">
          <mxGeometry x="370" y="370" width="110" height="50" as="geometry" />
        </mxCell>
      </root>
    </mxGraphModel>
  </diagram>
</mxfile>
